<svg width="78" height="142" viewBox="0 0 78 142" fill="none" xmlns="http://www.w3.org/2000/svg">
<path d="M77.5141 55.3516L39.0969 65.2072L0.679688 55.3516V67.2145L39.0801 77.0676V77.0754L39.0969 77.0702L39.1137 77.0754V77.0676L77.5141 67.2145V55.3516Z" fill="#CB3940"/>
<path d="M40.1834 0.687514C47.0535 0.687514 52.6748 2.26856 57.0472 5.43065C61.4196 8.59273 64.4131 12.8907 66.0278 18.3244H53.9602C51.7599 12.8907 47.1761 10.1738 40.2087 10.1738C35.2712 10.1738 31.2487 11.8039 28.141 15.0642C25.0334 18.3244 23.4767 22.4742 23.4711 27.5136C23.4711 32.6012 25.0277 36.7871 28.141 40.0715C31.2543 43.3559 35.3058 44.9989 40.2956 45.0006C47.7009 45.0006 52.4774 42.1107 54.6253 36.3307H66.2158C64.7191 42.1107 61.7807 46.5808 57.4008 49.7412C53.0209 52.9016 47.3192 54.4826 40.2956 54.4843C32.0317 54.4843 25.256 51.9405 19.9687 46.853C14.6814 41.7654 12.0387 35.3189 12.0405 27.5136C12.0405 19.7634 14.6832 13.3531 19.9687 8.28273C25.2541 3.21237 31.9924 0.680625 40.1834 0.687514Z" fill="#1D3270"/>
<path d="M71.0273 141.314L47.2091 85.0117H44.0182H34.1733H30.9824L7.16699 141.314H20.2029L39.0957 96.65L57.9886 141.314H71.0273Z" fill="#CB3940"/>
</svg>
