<svg width="30" height="30" viewBox="0 0 30 30" fill="none" xmlns="http://www.w3.org/2000/svg">
<path d="M7.60722 29.8939C5.8231 29.8128 4.85392 29.5159 4.20929 29.2644C3.35513 28.9319 2.74616 28.536 2.10509 27.8958C1.46402 27.2556 1.06726 26.6467 0.73647 25.7925C0.485036 25.1479 0.18813 24.1787 0.106993 22.3946C0.0178322 20.466 0 19.8874 0 15.0013C0 10.1153 0.0196154 9.53755 0.106102 7.60722C0.187238 5.8231 0.485927 4.85571 0.735578 4.20929C1.06815 3.35513 1.46492 2.74616 2.1042 2.1042C2.74438 1.46402 3.35335 1.06637 4.2084 0.735578C4.85303 0.484144 5.82221 0.187238 7.60632 0.106102C9.53577 0.0178322 10.1153 0 14.9996 0C19.8856 0 20.4633 0.0196154 22.3937 0.106102C24.1778 0.187238 25.1452 0.485927 25.7916 0.735578C26.6458 1.06637 27.2547 1.46402 27.8958 2.1042C28.5369 2.74438 28.9319 3.35424 29.2644 4.2084C29.5159 4.85303 29.8128 5.82221 29.8939 7.60632C29.9822 9.53666 30 10.1144 30 15.0004C30 19.8847 29.9822 20.4642 29.8939 22.3946C29.8128 24.1787 29.5141 25.1479 29.2644 25.7925C28.9319 26.6467 28.536 27.2556 27.8958 27.8958C27.2556 28.536 26.6458 28.9319 25.7916 29.2644C25.147 29.5159 24.1778 29.8128 22.3937 29.8939C20.4651 29.9822 19.8856 30 14.9996 30C10.1153 30 9.53577 29.9831 7.60722 29.8939" fill="url(#paint0_radial)"/>
<path d="M7.60722 29.8939C5.8231 29.8128 4.85392 29.5159 4.20929 29.2644C3.35513 28.9319 2.74616 28.536 2.10509 27.8958C1.46402 27.2556 1.06726 26.6467 0.73647 25.7925C0.485036 25.1479 0.18813 24.1787 0.106993 22.3946C0.0178322 20.466 0 19.8874 0 15.0013C0 10.1153 0.0196154 9.53755 0.106102 7.60722C0.187238 5.8231 0.485927 4.85571 0.735578 4.20929C1.06815 3.35513 1.46492 2.74616 2.1042 2.1042C2.74438 1.46402 3.35335 1.06637 4.2084 0.735578C4.85303 0.484144 5.82221 0.187238 7.60632 0.106102C9.53577 0.0178322 10.1153 0 14.9996 0C19.8856 0 20.4633 0.0196154 22.3937 0.106102C24.1778 0.187238 25.1452 0.485927 25.7916 0.735578C26.6458 1.06637 27.2547 1.46402 27.8958 2.1042C28.5369 2.74438 28.9319 3.35424 29.2644 4.2084C29.5159 4.85303 29.8128 5.82221 29.8939 7.60632C29.9822 9.53666 30 10.1144 30 15.0004C30 19.8847 29.9822 20.4642 29.8939 22.3946C29.8128 24.1787 29.5141 25.1479 29.2644 25.7925C28.9319 26.6467 28.536 27.2556 27.8958 27.8958C27.2556 28.536 26.6458 28.9319 25.7916 29.2644C25.147 29.5159 24.1778 29.8128 22.3937 29.8939C20.4651 29.9822 19.8856 30 14.9996 30C10.1153 30 9.53577 29.9831 7.60722 29.8939" fill="url(#paint1_radial)"/>
<path d="M11.3167 15.0639C11.3167 13.0123 12.9794 11.3486 15.0311 11.3486C17.0828 11.3486 18.7465 13.0123 18.7465 15.0639C18.7465 17.1156 17.0828 18.7793 15.0311 18.7793C12.9794 18.7793 11.3167 17.1156 11.3167 15.0639V15.0639ZM9.30822 15.0639C9.30822 18.2247 11.8704 20.7868 15.0311 20.7868C18.1919 20.7868 20.754 18.2247 20.754 15.0639C20.754 11.9032 18.1919 9.34106 15.0311 9.34106C11.8704 9.34106 9.30831 11.903 9.30831 15.0639H9.30822ZM19.6432 9.11415C19.6431 9.37866 19.7215 9.63727 19.8683 9.85726C20.0152 10.0773 20.224 10.2488 20.4683 10.3501C20.7127 10.4514 20.9816 10.478 21.241 10.4265C21.5005 10.375 21.7388 10.2477 21.926 10.0608C22.1131 9.87379 22.2406 9.63553 22.2923 9.37612C22.344 9.11671 22.3176 8.84779 22.2165 8.60337C22.1153 8.35895 21.944 8.15 21.7241 8.00296C21.5042 7.85591 21.2457 7.77737 20.9812 7.77727H20.9806C20.6261 7.77743 20.2861 7.91832 20.0353 8.16898C19.7846 8.41964 19.6435 8.75958 19.6432 9.11415V9.11415ZM10.5285 24.1359C9.44188 24.0864 8.85127 23.9054 8.45879 23.7525C7.93844 23.5499 7.56718 23.3087 7.17683 22.9189C6.78648 22.529 6.54486 22.1581 6.34317 21.6378C6.19017 21.2455 6.00918 20.6547 5.95978 19.5681C5.90575 18.3933 5.89496 18.0404 5.89496 15.0641C5.89496 12.0878 5.90664 11.7359 5.95978 10.5602C6.00927 9.47355 6.1916 8.88393 6.34317 8.49046C6.54575 7.97012 6.78702 7.59885 7.17683 7.20851C7.56664 6.81816 7.93755 6.57653 8.45879 6.37485C8.8511 6.22185 9.44188 6.04085 10.5285 5.99146C11.7033 5.93743 12.0562 5.92664 15.0311 5.92664C18.0061 5.92664 18.3593 5.93814 19.5351 5.99164C20.6217 6.04112 21.2113 6.22346 21.6048 6.37503C22.1251 6.57671 22.4964 6.81887 22.8867 7.20869C23.2771 7.5985 23.5178 7.9703 23.7204 8.49064C23.8734 8.88295 24.0544 9.47373 24.1038 10.5603C24.1578 11.7361 24.1686 12.088 24.1686 15.0643C24.1686 18.0406 24.1578 18.3925 24.1038 19.5683C24.0543 20.6549 23.8724 21.2455 23.7204 21.638C23.5178 22.1583 23.2765 22.5296 22.8867 22.919C22.4969 23.3085 22.1251 23.5501 21.6048 23.7527C21.2125 23.9057 20.6217 24.0867 19.5351 24.1361C18.3603 24.1901 18.0074 24.2009 15.0311 24.2009C12.0548 24.2009 11.7029 24.1901 10.5285 24.1361V24.1359ZM10.4362 3.98632C9.24973 4.04035 8.43899 4.22848 7.73097 4.50399C6.99815 4.7885 6.37697 5.1702 5.75667 5.78951C5.13638 6.40882 4.75566 7.0301 4.47115 7.7638C4.19564 8.47228 4.00751 9.28257 3.95348 10.469C3.89856 11.6574 3.88599 12.0373 3.88599 15.0639C3.88599 18.0906 3.89856 18.4705 3.95348 19.6589C4.00751 20.8454 4.19564 21.6556 4.47115 22.3641C4.75566 23.0969 5.13647 23.7193 5.75667 24.3384C6.37688 24.9574 6.99726 25.3386 7.73097 25.6239C8.44033 25.8994 9.24973 26.0875 10.4362 26.1416C11.6252 26.1956 12.0045 26.2091 15.0311 26.2091C18.0578 26.2091 18.4377 26.1965 19.626 26.1416C20.8126 26.0875 21.6228 25.8994 22.3313 25.6239C23.0641 25.3386 23.6853 24.9577 24.3055 24.3384C24.9258 23.7191 25.3058 23.0969 25.5911 22.3641C25.8666 21.6556 26.0556 20.8453 26.1087 19.6589C26.1628 18.4696 26.1753 18.0906 26.1753 15.0639C26.1753 12.0373 26.1628 11.6574 26.1087 10.469C26.0547 9.28248 25.8666 8.47183 25.5911 7.7638C25.3058 7.03099 24.9249 6.4098 24.3055 5.78951C23.6862 5.16922 23.0641 4.7885 22.3321 4.50399C21.6228 4.22848 20.8125 4.03946 19.6269 3.98632C18.4384 3.93202 18.0587 3.91882 15.0324 3.91882C12.0062 3.91882 11.6256 3.9314 10.4366 3.98632" fill="white"/>
<defs>
<radialGradient id="paint0_radial" cx="0" cy="0" r="1" gradientUnits="userSpaceOnUse" gradientTransform="translate(1.94157 29.3428) scale(38.0889)">
<stop offset="0.09" stop-color="#FA8F21"/>
<stop offset="0.78" stop-color="#D82D7E"/>
</radialGradient>
<radialGradient id="paint1_radial" cx="0" cy="0" r="1" gradientUnits="userSpaceOnUse" gradientTransform="translate(20.78 28.3795) scale(33.5186)">
<stop offset="0.64" stop-color="#8C3AAA" stop-opacity="0"/>
<stop offset="1" stop-color="#8C3AAA"/>
</radialGradient>
</defs>
</svg>
