<svg width="30" height="30" viewBox="0 0 30 30" fill="none" xmlns="http://www.w3.org/2000/svg">
<path d="M0 2.14898C0 0.962812 0.993047 0 2.21719 0H27.7828C29.0074 0 30 0.962812 30 2.14898V27.8514C30 29.0379 29.0074 30 27.7828 30H2.21719C0.993164 30 0 29.038 0 27.8517V2.14863V2.14898Z" fill="#006699"/>
<path d="M9.11662 25.106V11.5999H4.6274V25.106H9.11709H9.11662ZM6.87295 9.75623C8.43811 9.75623 9.41252 8.71912 9.41252 7.42302C9.38322 6.0974 8.43811 5.08923 6.90271 5.08923C5.36627 5.08923 4.36279 6.0974 4.36279 7.4229C4.36279 8.719 5.33686 9.75611 6.84353 9.75611H6.8726L6.87295 9.75623ZM11.6015 25.106H16.0903V17.5644C16.0903 17.1613 16.1196 16.7571 16.2382 16.4692C16.5626 15.6624 17.3012 14.8272 18.5417 14.8272C20.1656 14.8272 20.8157 16.0656 20.8157 17.8814V25.106H25.3044V17.362C25.3044 13.2137 23.0901 11.2833 20.1366 11.2833C17.7151 11.2833 16.6517 12.6367 16.0608 13.5585H16.0907V11.6004H11.6017C11.6603 12.8674 11.6013 25.1065 11.6013 25.1065L11.6015 25.106Z" fill="white"/>
</svg>
