<svg width="134" height="57" viewBox="0 0 142 60" fill="none" xmlns="http://www.w3.org/2000/svg">
<path d="M32.0548 23.1314L16.0274 27.3019L0 23.1314V28.1513L16.0204 32.3207V32.3239L16.0274 32.3218L16.0344 32.3239V32.3207L32.0548 28.1513V23.1314Z" fill="white"/>
<path d="M16.4805 5.93292e-06C19.3467 5.93292e-06 21.6919 0.66903 23.516 2.00708C25.3402 3.34513 26.589 5.16382 27.2626 7.46314H22.2281C21.3102 5.16382 19.3978 4.01416 16.4911 4.01416C14.4312 4.01416 12.753 4.70394 11.4565 6.08352C10.16 7.46314 9.51062 9.21914 9.50828 11.3516C9.50828 13.5044 10.1577 15.2757 11.4565 16.6655C12.7554 18.0553 14.4456 18.7505 16.5274 18.7513C19.6168 18.7513 21.6095 17.5284 22.5056 15.0826H27.3411C26.7167 17.5284 25.4908 19.4199 23.6635 20.7573C21.8363 22.0946 19.4575 22.7636 16.5274 22.7643C13.0797 22.7643 10.2529 21.6879 8.04708 19.5351C5.84127 17.3822 4.73872 14.6544 4.7395 11.3516C4.7395 8.07201 5.84205 5.35948 8.04708 3.21395C10.2521 1.06841 13.0633 -0.00290916 16.4805 5.93292e-06Z" fill="#F4F4F4"/>
<path d="M29.3491 59.5049L19.4123 35.6802H18.0811H13.9739H12.6426L2.70703 59.5049H8.1455L16.0275 40.6049L23.9095 59.5049H29.3491Z" fill="white"/>
<path d="M56.0568 21.1434C57.933 21.1434 59.5026 21.5557 60.7657 22.3804C62.0444 23.2284 62.969 24.4634 63.3834 25.8758H61.6062C61.2498 24.8801 60.5529 24.0214 59.6224 23.4318C58.6864 22.8333 57.497 22.5341 56.0549 22.5341C54.1344 22.5341 52.5529 23.1732 51.3099 24.4515C50.0673 25.7297 49.4474 27.3431 49.4515 29.2917C49.4515 31.2356 50.0717 32.8466 51.3117 34.1248C52.5521 35.4031 54.1337 36.0422 56.0568 36.0422C57.5141 36.0422 58.7128 35.7359 59.6529 35.1233C60.5816 34.5194 61.2765 33.6517 61.6344 32.6493H63.3834C62.9039 34.1808 62.0359 35.3589 60.7791 36.1836C59.5224 37.0082 57.9449 37.4206 56.0475 37.4206C53.65 37.4206 51.6723 36.6472 50.1138 35.1003C48.5556 33.5535 47.7822 31.6173 47.7933 29.2917C47.7933 26.9567 48.5702 25.0164 50.1234 23.4707C51.6767 21.925 53.6545 21.1493 56.0568 21.1434Z" fill="white"/>
<path d="M67.144 27.2908C68.2571 26.1845 69.7021 25.6314 71.4801 25.6314C73.2581 25.6314 74.6994 26.1845 75.8048 27.2908C76.9101 28.397 77.463 29.8025 77.463 31.5072C77.463 33.2119 76.9101 34.618 75.8048 35.7254C74.6994 36.8316 73.2581 37.3847 71.4801 37.3847C69.7021 37.3847 68.2571 36.8316 67.144 35.7254C66.0312 34.6191 65.4746 33.2131 65.4746 31.5072C65.4746 29.8013 66.0312 28.3958 67.144 27.2908ZM71.4972 26.9533C70.1508 26.9533 69.0656 27.3833 68.2419 28.2433C67.4178 29.1033 67.0052 30.1913 67.0041 31.5072C67.0041 32.8243 67.4167 33.9123 68.2419 34.7711C69.0671 35.6299 70.1523 36.06 71.4972 36.0611C72.8258 36.0611 73.8984 35.6311 74.7147 34.7711C75.5309 33.9111 75.9353 32.8231 75.9279 31.5072C75.9279 30.1924 75.5235 29.1045 74.7147 28.2433C73.9058 27.3821 72.8359 26.9521 71.5047 26.9533H71.4972Z" fill="white"/>
<path d="M85.1757 25.6314C86.4373 25.6314 87.4102 26.0201 88.094 26.7977C88.7778 27.5752 89.1179 28.5996 89.1141 29.8708V37.1373H87.5999V29.9998C87.5999 29.0278 87.3633 28.2839 86.8904 27.7678C86.4172 27.2518 85.7654 26.9944 84.935 26.9956C84.49 26.9902 84.0495 27.0835 83.6507 27.2678C83.2515 27.4521 82.9048 27.7222 82.6395 28.0559C82.0401 28.7628 81.7399 29.7052 81.7384 30.8833V37.1408H80.251V25.877H81.6439L81.7157 27.5823C81.9947 27.0174 82.4457 26.5417 83.0123 26.2145C83.654 25.821 84.4078 25.6177 85.1757 25.6314Z" fill="white"/>
<path d="M103.29 31.2607V32.0453H93.7037C93.768 33.2718 94.1884 34.2472 94.9641 34.9718C95.3455 35.3296 95.8009 35.6108 96.3028 35.798C96.8046 35.9852 97.3426 36.0745 97.8828 36.0603C99.7754 36.0603 101.009 35.3576 101.583 33.9521H103.144C102.831 34.9728 102.159 35.8653 101.236 36.4862C100.332 37.0859 99.2069 37.3851 97.862 37.3839C96.1964 37.3839 94.8313 36.8455 93.7662 35.7687C92.7014 34.6919 92.1682 33.2782 92.1667 31.5276C92.1667 29.8076 92.6835 28.3938 93.7171 27.2864C94.7506 26.179 96.1082 25.6259 97.7902 25.6271C99.4391 25.6271 100.768 26.1165 101.778 27.0956C102.787 28.0745 103.291 29.463 103.29 31.2607ZM93.7282 30.7659H101.751C101.751 29.5702 101.395 28.6359 100.682 27.9632C99.9693 27.2905 99.0045 26.9536 97.7883 26.9524C97.2664 26.9363 96.7466 27.0223 96.2626 27.2049C95.7785 27.3875 95.341 27.6627 94.9775 28.0127C94.2394 28.7267 93.8231 29.6444 93.7282 30.7659Z" fill="white"/>
<path d="M111.033 31.2822L115.431 37.1368H113.605L110.051 32.4485L106.519 37.1368H104.692L109.065 31.2822L105.022 25.8765H106.824L110.041 30.1618L113.283 25.8765H115.085L111.033 31.2822Z" fill="white"/>
<path d="M122.228 25.6311C123.557 25.6311 124.578 25.9786 125.291 26.6737C126.003 27.3688 126.36 28.3519 126.36 29.6231V37.137H124.92L124.871 35.5006C124.517 36.0692 124.001 36.5348 123.381 36.8454C122.668 37.2108 121.864 37.3937 121.051 37.3756C120.01 37.3756 119.181 37.0987 118.564 36.545C117.947 35.9913 117.639 35.2662 117.641 34.3696C117.641 32.6496 118.73 31.5805 120.907 31.1623L124.823 30.4218V29.6584C124.823 27.8501 123.958 26.9453 122.228 26.9441C121.512 26.9172 120.811 27.1373 120.258 27.5626C119.745 27.9726 119.488 28.574 119.49 29.3669H117.975C117.969 28.868 118.071 28.373 118.276 27.9122C118.48 27.4513 118.783 27.0342 119.166 26.6861C119.942 25.9839 120.963 25.6323 122.228 25.6311ZM120.835 21.4801C121.227 21.4703 121.614 21.5634 121.952 21.7487C122.226 21.8951 122.461 22.0989 122.637 22.3442C122.785 22.5662 122.967 22.7663 123.178 22.938C123.361 23.1056 123.606 23.2022 123.862 23.2084C124.599 23.2084 124.967 22.7 124.967 21.6833H126.119C126.119 22.4891 125.923 23.1371 125.531 23.6272C125.139 24.1172 124.558 24.3641 123.79 24.3676C123.398 24.3772 123.011 24.2841 122.673 24.099C122.396 23.951 122.161 23.7432 121.988 23.4929C121.842 23.2664 121.66 23.0621 121.448 22.8867C121.265 22.7198 121.02 22.6239 120.764 22.6181C120.027 22.6181 119.658 23.1335 119.658 24.1644H118.505C118.505 23.3397 118.702 22.6859 119.094 22.2029C119.486 21.7198 120.067 21.4789 120.835 21.4801ZM121.195 32.4276C119.849 32.7115 119.176 33.3541 119.177 34.3555C119.163 34.5892 119.204 34.823 119.298 35.0402C119.391 35.2574 119.535 35.4526 119.718 35.612C120.078 35.9124 120.587 36.0608 121.244 36.0608C121.778 36.0769 122.308 35.9758 122.792 35.7655C123.276 35.5553 123.7 35.2418 124.03 34.8503C124.556 34.2149 124.835 33.4319 124.823 32.629V31.6641L121.195 32.4276Z" fill="white"/>
<path d="M131.058 27.2908C132.17 26.1845 133.616 25.6314 135.394 25.6314C137.171 25.6314 138.613 26.1845 139.718 27.2908C140.824 28.397 141.376 29.8025 141.376 31.5072C141.376 33.2119 140.824 34.618 139.718 35.7254C138.613 36.8316 137.171 37.3847 135.394 37.3847C133.616 37.3847 132.17 36.8316 131.058 35.7254C129.944 34.6191 129.388 33.2131 129.388 31.5072C129.388 29.8013 129.944 28.3958 131.058 27.2908ZM135.41 26.9533C134.066 26.9533 132.98 27.3833 132.155 28.2433C131.33 29.1033 130.917 30.1913 130.917 31.5072C130.917 32.8243 131.33 33.9123 132.155 34.7711C132.98 35.6299 134.066 36.06 135.41 36.0611C136.739 36.0611 137.808 35.6311 138.617 34.7711C139.426 33.9111 139.83 32.8231 139.83 31.5072C139.83 30.1924 139.426 29.1045 138.617 28.2433C137.808 27.3821 136.742 26.9521 135.418 26.9533H135.41Z" fill="white"/>
<path d="M70.3596 49.3948C69.9034 49.3798 69.4492 49.4537 69.0254 49.6118C68.6016 49.7699 68.2181 50.0092 67.8992 50.3141C67.1306 51.0031 66.7466 51.9903 66.7466 53.2756V59.376H65.2324V48.1156H66.6499L66.6972 50.1567C66.9539 49.5397 67.4022 49.0088 67.9844 48.6314C68.6002 48.2122 69.3885 48.0031 70.3503 48.0043L70.3596 49.3948Z" fill="white"/>
<path d="M76.2798 48.1155H79.5467V49.4373H76.2534L76.2061 56.2796C76.2061 56.9672 76.3293 57.4638 76.5845 57.7713C76.8401 58.0789 77.3096 58.2305 78.0135 58.2305C78.5351 58.2294 79.0534 58.1539 79.5504 58.0064V59.2856C79.005 59.4698 78.4265 59.5532 77.8472 59.5313C76.7884 59.5313 75.9996 59.2887 75.4814 58.8034C74.9627 58.3177 74.7101 57.5362 74.7243 56.4581L74.7715 49.4373H72.364V48.1136H74.7659L74.7905 45.2422H76.3043L76.2798 48.1155Z" fill="white"/>
<path d="M92.2311 53.5016V54.2862H82.6469C82.7087 55.5126 83.1287 56.488 83.9074 57.2126C84.288 57.5707 84.7438 57.8522 85.2457 58.0394C85.7475 58.2265 86.2855 58.3156 86.8257 58.3012C88.7187 58.3012 89.952 57.5982 90.5261 56.1929H92.0875C91.7728 57.2137 91.1005 58.1058 90.1778 58.7269C89.273 59.3265 88.1483 59.6258 86.803 59.6246C85.1363 59.6246 83.7705 59.0865 82.7053 58.0095C81.6405 56.9329 81.1082 55.519 81.1082 53.7684C81.1082 52.0484 81.6249 50.6348 82.6581 49.5273C83.6916 48.4197 85.0485 47.8665 86.7294 47.868C88.3797 47.868 89.7098 48.3575 90.7192 49.3363C91.7285 50.3152 92.2326 51.7039 92.2311 53.5016ZM82.6696 53.0069H90.6946C90.6946 51.8122 90.3367 50.8756 89.625 50.2039C88.9136 49.5326 87.9482 49.1933 86.7294 49.1933C86.2078 49.1775 85.688 49.2639 85.204 49.4465C84.72 49.6288 84.2824 49.9039 83.9186 50.2537C83.183 50.9662 82.7667 51.8835 82.6696 53.005V53.0069Z" fill="white"/>
<path d="M63.336 59.3757L56.3576 43.6395H56.2913H54.603H54.5368L47.5569 59.3757H49.3114L55.4472 45.5425L61.5833 59.3757H63.336Z" fill="white"/>
</svg>
