<svg width="57" height="121" viewBox="0 0 57 121" fill="none" xmlns="http://www.w3.org/2000/svg">
<path d="M29.6079 99.6525L41.9645 87.2615C42.1696 87.0216 42.2767 86.713 42.2646 86.3973C42.2524 86.0817 42.1218 85.7823 41.8988 85.5589C41.6759 85.3356 41.377 85.2047 41.0619 85.1925C40.7468 85.1803 40.4387 85.2877 40.1992 85.4932L28.8568 96.8558L17.8398 85.8192C17.6052 85.5857 17.2879 85.4545 16.9572 85.4545C16.6264 85.4545 16.3091 85.5857 16.0746 85.8192C15.9572 85.9358 15.8641 86.0745 15.8005 86.2274C15.737 86.3802 15.7043 86.5441 15.7043 86.7097C15.7043 86.8752 15.737 87.0392 15.8005 87.192C15.8641 87.3448 15.9572 87.4835 16.0746 87.6001L28.1056 99.6525C28.3051 99.8516 28.5752 99.9635 28.8568 99.9635C29.1384 99.9635 29.4085 99.8516 29.6079 99.6525Z" fill="white"/>
<path d="M29.6077 111.666L41.9643 99.2749C42.1694 99.035 42.2765 98.7264 42.2644 98.4108C42.2522 98.0951 42.1216 97.7957 41.8986 97.5723C41.6757 97.349 41.3768 97.2181 41.0617 97.206C40.7466 97.1938 40.4386 97.3011 40.1991 97.5066L28.8566 108.869L17.8396 97.8327C17.6051 97.5991 17.2878 97.468 16.957 97.468C16.6263 97.468 16.309 97.5991 16.0744 97.8327V97.8327C15.8412 98.0676 15.7104 98.3855 15.7104 98.7168C15.7104 99.0482 15.8412 99.366 16.0744 99.601L28.1054 111.666C28.3049 111.865 28.575 111.977 28.8566 111.977C29.1382 111.977 29.4083 111.865 29.6077 111.666V111.666Z" fill="white"/>
<path d="M31.6435 24.2482C31.6435 22.5091 30.2362 21.0992 28.5001 21.0992C26.764 21.0992 25.3568 22.5091 25.3568 24.2482V33.6951C25.3568 35.4342 26.764 36.844 28.5001 36.844C30.2362 36.844 31.6435 35.4342 31.6435 33.6951V24.2482Z" fill="white"/>
<path fill-rule="evenodd" clip-rule="evenodd" d="M1.78125 27.3959C1.78125 15.2221 11.6326 5.35323 23.7849 5.35323H33.2151C45.3674 5.35323 55.2187 15.2221 55.2187 27.3959V52.5876C55.2187 64.7615 45.3674 74.6303 33.2151 74.6303H23.7849C11.6326 74.6303 1.78125 64.7615 1.78125 52.5876V27.3959ZM23.7849 11.6511H33.2151C41.8952 11.6511 48.932 18.7003 48.932 27.3959V52.5876C48.932 61.2831 41.8952 68.3324 33.2151 68.3324H23.7849C15.1047 68.3324 8.06801 61.2831 8.06801 52.5876V27.3959C8.06801 18.7003 15.1047 11.6511 23.7849 11.6511Z" fill="white"/>
</svg>
