<svg width="30" height="21" viewBox="0 0 30 21" fill="none" xmlns="http://www.w3.org/2000/svg">
<path d="M21.5577 10.2487L12.8797 4.94763H11.4661V16.6099L21.5577 10.2487Z" fill="white"/>
<path d="M15.6646 20.7058L9.5098 20.5934C7.51699 20.5542 5.51924 20.6324 3.56551 20.2264C0.593442 19.6198 0.38289 16.6455 0.16257 14.1506C-0.141009 10.6432 -0.0234844 7.07206 0.549408 3.59388C0.872825 1.64225 2.1456 0.4777 4.1139 0.350975C10.7584 -0.108929 17.447 -0.0544252 24.0768 0.160137C24.777 0.179806 25.482 0.287312 26.1724 0.409683C29.5804 1.00652 29.6635 4.37705 29.8844 7.2144C30.1048 10.081 30.0117 12.9624 29.5906 15.8095C29.2528 18.1668 28.6064 20.1437 25.8786 20.3345C22.4607 20.5841 19.1214 20.7849 15.6939 20.721C15.6941 20.7058 15.6744 20.7058 15.6646 20.7058ZM12.0462 14.7377C14.6218 13.2603 17.1483 11.8074 19.7091 10.3399C17.1287 8.86243 14.6071 7.40959 12.0462 5.94204V14.7377Z" fill="#FF0000"/>
</svg>
